# xmcd
#
# Track frame offsets: 
#        150
#        12398
#        25072
#        33994
#        45695
#        55588
#        70647
#        81572
#        91590
#        101530
#        112054
#        121681
#        132274
#        142113
#        151337
#        161920
#        170685
#        181662
#        195882
#        206109
#        217852
#        229029
#        239363
#        250533
#        260304
#        270596
#        281609
#        292952
#
# Disc length: 4037 seconds
#
# Revision: 0
# Processed by: cddbd v1.5.2PL0 Copyright (c) Steve Scherf et al.
# Submitted via: ExactAudioCopyFreeDBPlugin 1.0
#
DISCID=7c0fc31c
DTITLE=Patsy Cline - Crazy CD1
DYEAR=2012
DGENRE=Country
TTITLE0=Crazy
TTITLE1=I Fall To Pieces
TTITLE2=Walkin' After Midnight
TTITLE3=A Poor Man's Roses
TTITLE4=Have You Ever Been Lonely (Have You Ever Been Blue)?
TTITLE5=The Wayward Wind
TTITLE6=South Of The Border
TTITLE7=I Love You So Much It Hurts
TTITLE8=Seven Lonely Days
TTITLE9=San Antonio Rose
TTITLE10=True Love
TTITLE11=Honky Tonk Merry Go round
TTITLE12=Turn The Cards Slowly
TTITLE13=Come On In (And Make Yourself At Home)
TTITLE14=Stop Look And Listen
TTITLE15=Try Again
TTITLE16=A Stranger In My Arms
TTITLE17=Then You'll Know
TTITLE18=Walking Dreams
TTITLE19=Never No More
TTITLE20=Just Out Of Reach
TTITLE21=He Wil Do For You
TTITLE22=Cry Not For Me
TTITLE23=I'm Blue Again
TTITLE24=How Can I Face Tomorrow?
TTITLE25=There He Goes
TTITLE26=That Wonderful Someone
TTITLE27=Lovin' In Vain
EXTD=
EXTT0=
EXTT1=
EXTT2=
EXTT3=
EXTT4=
EXTT5=
EXTT6=
EXTT7=
EXTT8=
EXTT9=
EXTT10=
EXTT11=
EXTT12=
EXTT13=
EXTT14=
EXTT15=
EXTT16=
EXTT17=
EXTT18=
EXTT19=
EXTT20=
EXTT21=
EXTT22=
EXTT23=
EXTT24=
EXTT25=
EXTT26=
EXTT27=
PLAYORDER=
